<svg width="479.376" height="512.744" xmlns="http://www.w3.org/2000/svg" fill="currentColor">

 <g>
  <title>Layer 1</title>
  <path stroke="null" fill=" #fafafa" data-uid="o_f3memj0hg_5" d="m424.46331,84.11177c-0.09383,-4.62314 -3.30249,-7.23725 -6.86806,-8.52983l-168.52976,-43.29897c-3.96457,-0.97514 -8.18257,-2.09497 -12.1296,-2.09497c-3.96457,0 -7.71254,0.83658 -11.07993,2.40628l-4.10576,2.33788l-161.26182,92.17868c-0.53405,0.35165 -1.04968,0.73311 -1.56619,1.11369c-25.16858,16.32744 -29.66719,33.7405 -29.66719,53.16786l0,182.57895c0,9.31556 5.03266,17.47621 12.5935,21.98447l0.17538,0.10962l162.24222,92.10326c1.75911,1.05055 3.8418,1.65651 6.04726,1.65651c6.44013,0 11.66571,-5.13088 11.66571,-11.43947l0,-184.65726c0,-8.85868 -4.56877,-16.66242 -11.50787,-21.28556l-3.62432,-2.02569l-131.49027,-72.96441c-10.11706,-5.88152 -11.02643,-17.39027 -8.00017,-24.29867c4.35831,-9.87503 15.0445,-11.77971 22.47642,-9.99605l136.82723,34.49115c4.60385,1.04442 7.91248,1.98535 12.05857,1.98535c4.19432,0 8.15889,-0.95848 11.68413,-2.68426l2.34577,-1.31012l164.6941,-91.39295c2.99645,-2.06077 7.12588,-5.54654 7.02065,-10.13548zm9.12088,67.07236l-40.5656,-21.96079l-32.46984,18.50922c0,0 37.23855,20.20081 43.51469,24.38461c7.59591,5.05634 4.60472,12.49002 -0.4104,15.26636l-131.57797,73.03982l-3.57171,1.97395c-0.01754,0.01666 -0.04122,0.0342 -0.05875,0.05174c-6.95663,4.62314 -11.50173,12.42074 -11.50173,21.28556l0,184.64498c0,6.31473 5.20805,11.43947 11.64291,11.43947c2.01166,0 3.91196,-0.50774 5.56583,-1.3908c0.15872,-0.07542 0.32271,-0.16135 0.48055,-0.26571l162.18347,-92.07432l0.22888,-0.13242c7.54242,-4.50212 12.58648,-12.66277 12.58648,-21.98447l0,-182.57281c0.01228,-15.93019 -4.00579,-23.54802 -16.04682,-30.21439z" id="_n7P3tQAUp9mow-A1r7lIX"/>
 </g>
</svg>