<svg width="479.376" height="512.744" xmlns="http://www.w3.org/2000/svg" fill="currentColor">

 <g>
  <title>Layer 1</title>
  <path stroke="null" fill=" #222222" data-uid="o_f3memj0hg_5" d="m425.40344,81.24005c-0.09405,-4.63414 -3.31035,-7.25446 -6.8844,-8.55012l-168.93066,-43.40197c-3.974,-0.97746 -8.20204,-2.09995 -12.15846,-2.09995c-3.974,0 -7.73089,0.83857 -11.10628,2.412l-4.11552,2.34344l-161.64544,92.39795c-0.53532,0.35248 -1.05217,0.73485 -1.56991,1.11634c-25.22845,16.36628 -29.73777,33.82077 -29.73777,53.29434l0,183.01327c0,9.33772 5.04463,17.51778 12.62345,22.03677l0.1758,0.10988l162.62817,92.32236c1.76329,1.05305 3.85094,1.66045 6.06165,1.66045c6.45545,0 11.69346,-5.14308 11.69346,-11.46668l0,-185.09653c0,-8.87975 -4.57964,-16.70206 -11.53524,-21.3362l-3.63295,-2.03051l-131.80307,-73.13798c-10.14113,-5.89552 -11.05266,-17.43164 -8.0192,-24.35647c4.36868,-9.89852 15.08029,-11.80773 22.52989,-10.01983l137.15272,34.5732c4.6148,1.0469 7.9313,1.99008 12.08726,1.99008c4.2043,0 8.1783,-0.96076 11.71192,-2.69065l2.35135,-1.31324l165.08588,-91.61036c3.00358,-2.06567 7.14283,-5.55973 7.03735,-10.15959zm9.14258,67.23191l-40.6621,-22.01303l-32.54708,18.55325c0,0 37.32713,20.24886 43.6182,24.44261c7.61398,5.06837 4.61568,12.51973 -0.41138,15.30267l-131.89097,73.21357l-3.58021,1.97865c-0.01758,0.0167 -0.04131,0.03428 -0.05889,0.05186c-6.97318,4.63414 -11.52909,12.45029 -11.52909,21.3362l0,185.08422c0,6.32975 5.22044,11.46668 11.67061,11.46668c2.01645,0 3.92126,-0.50895 5.57907,-1.39411c0.1591,-0.07559 0.32348,-0.16174 0.4817,-0.26634l162.56927,-92.29335l0.22942,-0.13273c7.56036,-4.51283 12.61642,-12.6929 12.61642,-22.03677l0,-183.00712c0.01231,-15.96808 -4.01531,-23.60404 -16.08499,-30.28627z" id="_n7P3tQAUp9mow-A1r7lIX"/>
 </g>
</svg>