<?xml version="1.0" encoding="utf-8"?>
<svg fill="currentColor" viewBox="11.255 1.188 479.376 512.744" xmlns="http://www.w3.org/2000/svg">
  <path id="_n7P3tQAUp9mow-A1r7lIX" d="M 461.931 62.68 C 461.824 57.408 458.165 54.427 454.099 52.953 L 261.916 3.577 C 257.395 2.465 252.585 1.188 248.084 1.188 C 243.563 1.188 239.289 2.142 235.449 3.932 L 230.767 6.598 L 46.872 111.714 C 46.263 112.115 45.675 112.55 45.086 112.984 C 16.385 131.603 11.255 151.46 11.255 173.614 L 11.255 381.818 C 11.255 392.441 16.994 401.747 25.616 406.888 L 25.816 407.013 L 210.829 512.043 C 212.835 513.241 215.21 513.932 217.725 513.932 C 225.069 513.932 231.028 508.081 231.028 500.887 L 231.028 290.313 C 231.028 280.211 225.818 271.312 217.905 266.04 L 213.772 263.73 L 63.827 180.525 C 52.29 173.818 51.253 160.694 54.704 152.816 C 59.674 141.555 71.86 139.383 80.335 141.417 L 236.366 180.749 C 241.616 181.94 245.389 183.013 250.117 183.013 C 254.9 183.013 259.421 181.92 263.441 179.952 L 266.116 178.458 L 453.925 74.238 C 457.342 71.888 462.051 67.913 461.931 62.68 Z M 472.332 139.166 L 426.073 114.123 L 389.046 135.23 C 389.046 135.23 431.511 158.266 438.668 163.037 C 447.33 168.803 443.919 177.28 438.2 180.446 L 288.155 263.737 L 284.082 265.988 C 284.062 266.007 284.035 266.027 284.015 266.047 C 276.082 271.319 270.899 280.211 270.899 290.32 L 270.899 500.88 C 270.899 508.081 276.838 513.925 284.176 513.925 C 286.47 513.925 288.637 513.346 290.523 512.339 C 290.704 512.253 290.891 512.155 291.071 512.036 L 476.017 407.039 L 476.278 406.888 C 484.879 401.754 490.631 392.448 490.631 381.818 L 490.631 173.621 C 490.645 155.455 486.063 146.768 472.332 139.166 Z" data-uid="o_f3memj0hg_5" style="fill: rgb(252, 88, 23);"/>
</svg>